<svg width="236" height="12" viewBox="0 0 236 12" fill="none" xmlns="http://www.w3.org/2000/svg">
<path d="M26.585 11.9682H22.6684V7.64503C22.5085 7.75099 22.3433 7.85166 22.1728 7.94702C22.0129 8.03179 21.8424 8.11126 21.6612 8.18543C20.9046 8.50331 20.1212 8.66225 19.3113 8.66225H7.36962C6.90069 8.66225 6.45841 8.75232 6.04277 8.93245C5.63778 9.10199 5.28076 9.3404 4.97169 9.64768C4.67329 9.94437 4.43349 10.2993 4.25232 10.7126C4.0818 11.1152 3.99654 11.5444 3.99654 12L0 11.9682V4.68874C0 4.04238 0.122561 3.43311 0.367682 2.86093C0.612803 2.28874 0.948512 1.79073 1.37481 1.36689C1.80111 0.943046 2.30201 0.609272 2.87751 0.365563C3.45301 0.121854 4.06581 0 4.71592 0H26.585V11.9682ZM19.3113 6.00795C19.7695 6.00795 20.2012 5.92318 20.6062 5.75364C21.0218 5.57351 21.3788 5.3351 21.6772 5.03841C21.9863 4.73113 22.2261 4.37616 22.3966 3.97351C22.5778 3.57086 22.6684 3.13642 22.6684 2.6702V2.63841H5.91488C5.63778 2.63841 5.37668 2.69139 5.13156 2.79735C4.88644 2.90331 4.67329 3.04636 4.49211 3.22649C4.31093 3.40662 4.16706 3.61854 4.06048 3.86225C3.96457 4.09536 3.91661 4.34967 3.91661 4.62517V7.10464C4.08713 6.97748 4.26298 6.86623 4.44415 6.77086C4.63599 6.6649 4.82782 6.56954 5.01965 6.48477C5.76567 6.16689 6.549 6.00795 7.36962 6.00795H19.3113Z" fill="white"/>
<path d="M48.5859 9.13907V9.12318L48.6019 9.13907H48.5859ZM44.5414 7.40662C44.8185 7.97881 45.2235 8.44503 45.7564 8.8053C46.2999 9.15497 46.9074 9.3298 47.5788 9.3298H55.476V11.9682H46.3319C45.5432 11.9682 44.8025 11.8305 44.1098 11.555C43.4171 11.2795 42.7989 10.8927 42.2554 10.3947C42.2234 10.3629 42.1915 10.3311 42.1595 10.2993C42.1382 10.2676 42.1115 10.2358 42.0796 10.204C41.6959 9.82252 41.3655 9.39868 41.0884 8.93245C40.8113 8.45563 40.6088 7.94702 40.4809 7.40662H36.1007C35.6531 7.42781 35.2322 7.52848 34.8378 7.70861C34.4435 7.87815 34.0918 8.11656 33.7827 8.42384C33.495 8.69934 33.2659 9.01722 33.0953 9.37748C32.9355 9.72715 32.8342 10.098 32.7916 10.4901V11.9682H28.875V0.0476815H51.7832C52.2947 0.0476815 52.7743 0.148344 53.2219 0.349669C53.6695 0.540397 54.0585 0.805297 54.3889 1.14437C54.7299 1.47285 54.9964 1.8596 55.1882 2.30464C55.3907 2.74967 55.4919 3.22649 55.4919 3.7351C55.4919 4.24371 55.3907 4.72053 55.1882 5.16556C54.9964 5.6106 54.7299 6.00265 54.3889 6.34172C54.0585 6.6702 53.6695 6.9298 53.2219 7.12053C52.7743 7.31126 52.2947 7.40662 51.7832 7.40662H44.5414ZM50.5362 4.76821C50.824 4.76821 51.0691 4.66755 51.2716 4.46623C51.3569 4.37086 51.4261 4.2649 51.4794 4.14834C51.5434 4.02119 51.5753 3.88344 51.5753 3.7351C51.5753 3.44901 51.4741 3.2053 51.2716 3.00397C51.0691 2.79205 50.824 2.68609 50.5362 2.68609H32.7916V5.80132C32.9515 5.68477 33.1167 5.58411 33.2872 5.49934C33.4577 5.41457 33.6335 5.3298 33.8147 5.24503C34.4115 5.00132 35.003 4.84768 35.5892 4.78411H35.8769C35.9515 4.78411 36.0208 4.78411 36.0848 4.78411C36.1487 4.77351 36.1913 4.76821 36.2126 4.76821H50.5362Z" fill="white"/>
<path d="M80.9661 2.68609H70.3993C70.9215 3.32185 71.3265 4.02649 71.6142 4.8C71.9126 5.57351 72.0618 6.3947 72.0618 7.26358V11.9682H68.1612V7.05695C68.1612 6.45298 68.044 5.88609 67.8095 5.35629C67.5857 4.82649 67.2766 4.36556 66.8823 3.97351C66.488 3.57086 66.0244 3.25828 65.4915 3.03576C64.9587 2.80265 64.3885 2.68609 63.781 2.68609H56.907V0.0635763H80.9661V2.68609Z" fill="white"/>
<path d="M86.7788 0.0476815V11.9682H82.8782V0.0476815H86.7788Z" fill="white"/>
<path d="M94.2466 5.08609C95.0353 4.75762 95.8506 4.59338 96.6925 4.59338H105.917V7.23179H96.6925C96.1916 7.23179 95.7227 7.32715 95.2857 7.51788C94.8488 7.69801 94.4651 7.95232 94.1347 8.2808C93.8043 8.60927 93.5432 8.99073 93.3514 9.42517C93.1702 9.8596 93.0796 10.3258 93.0796 10.8238V11.9682H89.179V0.0476815H115.652V2.68609H93.0796V5.73775C93.4313 5.48344 93.8203 5.26623 94.2466 5.08609Z" fill="white"/>
<path d="M121.471 0.0476815V11.9682H117.57V0.0476815H121.471Z" fill="white"/>
<path d="M143.962 9.3298C144.218 9.3298 144.457 9.28742 144.681 9.20265C144.905 9.11788 145.102 9.00132 145.273 8.85298C145.454 8.69404 145.598 8.51391 145.704 8.31258C145.822 8.10066 145.896 7.87285 145.928 7.62914H149.829C149.797 8.23311 149.648 8.8 149.381 9.3298C149.115 9.8596 148.768 10.3205 148.342 10.7126C147.916 11.1046 147.425 11.4119 146.871 11.6344C146.328 11.857 145.752 11.9682 145.145 11.9682H128.072C127.432 11.9682 126.825 11.8464 126.249 11.6026C125.684 11.3589 125.189 11.0305 124.762 10.6172C124.336 10.1934 123.995 9.69536 123.739 9.12318C123.494 8.55099 123.372 7.94172 123.372 7.29536V4.72053C123.372 4.07417 123.494 3.4649 123.739 2.89271C123.995 2.32053 124.336 1.82252 124.762 1.39868C125.189 0.974834 125.684 0.641059 126.249 0.397351C126.825 0.153642 127.432 0.0370856 128.072 0.0476815H145.145C145.752 0.0476815 146.328 0.15894 146.871 0.381457C147.425 0.603974 147.916 0.911259 148.342 1.30331C148.768 1.69536 149.115 2.15629 149.381 2.68609C149.648 3.21589 149.797 3.78278 149.829 4.38675H145.928C145.896 4.14305 145.822 3.92053 145.704 3.7192C145.598 3.50728 145.454 3.32715 145.273 3.17881C145.102 3.01987 144.905 2.89801 144.681 2.81324C144.457 2.71788 144.218 2.6702 143.962 2.6702H129.255C128.977 2.6702 128.716 2.72318 128.471 2.82914C128.237 2.9351 128.029 3.07815 127.848 3.25828C127.667 3.43841 127.523 3.65033 127.416 3.89404C127.32 4.12715 127.272 4.38146 127.272 4.65695V7.35894C127.272 7.63444 127.32 7.89404 127.416 8.13775C127.523 8.37086 127.667 8.57748 127.848 8.75762C128.029 8.93775 128.237 9.0808 128.471 9.18676C128.716 9.28212 128.977 9.3298 129.255 9.3298H143.962Z" fill="white"/>
<path d="M155.647 0.0476815V11.9682H151.747V0.0476815H155.647Z" fill="white"/>
<path d="M162.747 11.9682C162.097 11.9682 161.485 11.8464 160.909 11.6026C160.344 11.3589 159.849 11.0252 159.422 10.6013C158.996 10.1775 158.66 9.68477 158.415 9.12318C158.17 8.55099 158.048 7.94172 158.048 7.29536V0.0476815H161.948V7.35894C161.948 7.63444 161.996 7.89404 162.092 8.13775C162.199 8.37086 162.342 8.57748 162.524 8.75762C162.705 8.93775 162.913 9.0808 163.147 9.18676C163.392 9.29272 163.653 9.3457 163.93 9.3457H180.636V0.0476815H184.521V11.9682H162.747Z" fill="white"/>
<path d="M231.3 0.0476815C231.95 0.0476815 232.558 0.169536 233.122 0.413244C233.698 0.656953 234.199 0.990728 234.625 1.41457C235.051 1.83841 235.387 2.33642 235.632 2.90861C235.877 3.4702 236 4.07417 236 4.72053V11.9682H232.099V4.65695C232.099 4.38146 232.046 4.12715 231.94 3.89404C231.844 3.65033 231.705 3.43841 231.524 3.25828C231.343 3.07815 231.13 2.9351 230.884 2.82914C230.65 2.72318 230.394 2.6702 230.117 2.6702H220.254C219.305 2.6702 218.415 2.85033 217.584 3.2106C216.763 3.56027 216.039 4.04768 215.41 4.67285C214.792 5.28742 214.301 6.00795 213.939 6.83444C213.587 7.66093 213.412 8.5404 213.412 9.47285V11.9682H209.511V9.47285C209.511 8.5404 209.33 7.66093 208.967 6.83444C208.616 6.00795 208.125 5.28742 207.497 4.67285C206.879 4.04768 206.154 3.56027 205.323 3.2106C204.491 2.85033 203.607 2.6702 202.669 2.6702H192.805C192.528 2.6702 192.267 2.72318 192.022 2.82914C191.788 2.9351 191.58 3.07815 191.399 3.25828C191.217 3.43841 191.074 3.65033 190.967 3.89404C190.871 4.12715 190.823 4.38146 190.823 4.65695V11.9682H186.923V4.72053C186.923 4.07417 187.045 3.4702 187.29 2.90861C187.535 2.33642 187.871 1.83841 188.297 1.41457C188.724 0.990728 189.219 0.656953 189.784 0.413244C190.36 0.169536 190.972 0.0476815 191.622 0.0476815H203.644C204.443 0.0476815 205.216 0.143046 205.962 0.333774C206.708 0.513907 207.411 0.77351 208.072 1.11258C208.744 1.44106 209.362 1.84901 209.927 2.33642C210.502 2.81324 211.014 3.34305 211.461 3.92583C211.909 3.34305 212.415 2.81324 212.98 2.33642C213.555 1.84901 214.174 1.44106 214.834 1.11258C215.506 0.77351 216.214 0.513907 216.96 0.333774C217.706 0.143046 218.479 0.0476815 219.278 0.0476815H231.3Z" fill="white"/>
</svg>
