<!DOCTYPE svg PUBLIC "-//W3C//DTD SVG 1.1//EN" "http://www.w3.org/Graphics/SVG/1.1/DTD/svg11.dtd">
<!-- Uploaded to: SVG Repo, www.svgrepo.com, Transformed by: SVG Repo Mixer Tools -->
<svg fill="#D0302F" height="64px" width="64px" version="1.1" id="Capa_1" xmlns="http://www.w3.org/2000/svg" xmlns:xlink="http://www.w3.org/1999/xlink" viewBox="-5.6 -5.6 67.20 67.20" xml:space="preserve" stroke="#D0302F" stroke-width="0.00056">
<g id="SVGRepo_bgCarrier" stroke-width="0"/>
<g id="SVGRepo_tracerCarrier" stroke-linecap="round" stroke-linejoin="round" stroke="#D0302F" stroke-width="1.6800000000000002"> <g> <path d="M54.424,28.382c0.101-0.244,0.101-0.519,0-0.764c-0.051-0.123-0.125-0.234-0.217-0.327L42.208,15.293 c-0.391-0.391-1.023-0.391-1.414,0s-0.391,1.023,0,1.414L51.087,27H20.501c-0.552,0-1,0.447-1,1s0.448,1,1,1h30.586L40.794,39.293 c-0.391,0.391-0.391,1.023,0,1.414C40.989,40.902,41.245,41,41.501,41s0.512-0.098,0.707-0.293l11.999-11.999 C54.299,28.616,54.373,28.505,54.424,28.382z"/> <path d="M36.501,33c-0.552,0-1,0.447-1,1v20h-32V2h32v20c0,0.553,0.448,1,1,1s1-0.447,1-1V1c0-0.553-0.448-1-1-1h-34 c-0.552,0-1,0.447-1,1v54c0,0.553,0.448,1,1,1h34c0.552,0,1-0.447,1-1V34C37.501,33.447,37.053,33,36.501,33z"/> </g> </g>
<g id="SVGRepo_iconCarrier"> <g> <path d="M54.424,28.382c0.101-0.244,0.101-0.519,0-0.764c-0.051-0.123-0.125-0.234-0.217-0.327L42.208,15.293 c-0.391-0.391-1.023-0.391-1.414,0s-0.391,1.023,0,1.414L51.087,27H20.501c-0.552,0-1,0.447-1,1s0.448,1,1,1h30.586L40.794,39.293 c-0.391,0.391-0.391,1.023,0,1.414C40.989,40.902,41.245,41,41.501,41s0.512-0.098,0.707-0.293l11.999-11.999 C54.299,28.616,54.373,28.505,54.424,28.382z"/> <path d="M36.501,33c-0.552,0-1,0.447-1,1v20h-32V2h32v20c0,0.553,0.448,1,1,1s1-0.447,1-1V1c0-0.553-0.448-1-1-1h-34 c-0.552,0-1,0.447-1,1v54c0,0.553,0.448,1,1,1h34c0.552,0,1-0.447,1-1V34C37.501,33.447,37.053,33,36.501,33z"/> </g> </g>
</svg>