<svg width="12" height="18" viewBox="0 0 12 18" fill="none" xmlns="http://www.w3.org/2000/svg">
<path d="M3.14286 12.3333V13.6429C3.14286 15.2208 4.42204 16.5 6 16.5V16.5C7.57796 16.5 8.85714 15.2208 8.85714 13.6429V12.3333M3.14286 12.3333V11.9627C3.14286 11.321 2.81521 10.7353 2.38089 10.2629C1.52531 9.33241 1 8.07241 1 6.68519C1 3.82149 3.23858 1.5 6 1.5C8.76142 1.5 11 3.82149 11 6.68519C11 8.07241 10.4747 9.33241 9.61911 10.2629C9.18479 10.7353 8.85714 11.321 8.85714 11.9627V12.3333M3.14286 12.3333H8.85714" stroke="#4D62E5" stroke-width="1.5" stroke-linecap="round" stroke-linejoin="round"/>
</svg>
