<svg width="14" height="14" viewBox="0 0 14 14" fill="none" xmlns="http://www.w3.org/2000/svg">
<path fill-rule="evenodd" clip-rule="evenodd" d="M0.333336 7.00001C0.333336 3.31811 3.3181 0.333344 7 0.333344C10.6819 0.333344 13.6667 3.31811 13.6667 7.00001C13.6667 10.6819 10.6819 13.6667 7 13.6667C3.3181 13.6667 0.333336 10.6819 0.333336 7.00001ZM7 3.66668C6.63181 3.66668 6.33334 3.96515 6.33334 4.33334C6.33334 4.70153 6.63181 5.00001 7 5.00001H7.00667C7.37486 5.00001 7.67334 4.70153 7.67334 4.33334C7.67334 3.96515 7.37486 3.66668 7.00667 3.66668H7ZM7.66667 7.00001C7.66667 6.63182 7.36819 6.33334 7 6.33334C6.63181 6.33334 6.33334 6.63182 6.33334 7.00001V9.66668C6.33334 10.0349 6.63181 10.3333 7 10.3333C7.36819 10.3333 7.66667 10.0349 7.66667 9.66668V7.00001Z" fill="#686B6E"/>
</svg>
