<svg width="20" height="16" viewBox="0 0 20 16" fill="none" xmlns="http://www.w3.org/2000/svg">
<path d="M2 2L8 8M18 2L12 8M8 8L8.58579 8.58579C9.36684 9.36684 10.6332 9.36684 11.4142 8.58579L12 8M8 8L1.87868 14.1213M12 8L18.1213 14.1213M18.1213 14.1213C18.6642 13.5784 19 12.8284 19 12V3C19 1.89543 18.1046 1 17 1H3C1.89543 1 1 1.89543 1 3V12C1 12.8284 1.33579 13.5784 1.87868 14.1213M18.1213 14.1213C17.5784 14.6642 16.8284 15 16 15H4C3.17157 15 2.42157 14.6642 1.87868 14.1213" stroke="#686B6E" stroke-width="1.5" stroke-linecap="round"/>
</svg>
