<svg width="14" height="20" viewBox="0 0 14 20" fill="none" xmlns="http://www.w3.org/2000/svg">
<path d="M3.57143 14V15.5714C3.57143 17.465 5.10645 19 7 19V19C8.89355 19 10.4286 17.465 10.4286 15.5714V14M3.57143 14V13.3508C3.57143 12.7092 3.2476 12.1213 2.79785 11.6636C1.68829 10.5345 1 8.9617 1 7.22222C1 3.78578 3.68629 1 7 1C10.3137 1 13 3.78578 13 7.22222C13 8.9617 12.3117 10.5345 11.2022 11.6636C10.7524 12.1213 10.4286 12.7092 10.4286 13.3508V14M3.57143 14H10.4286" stroke="#686B6E" stroke-width="1.5" stroke-linecap="round" stroke-linejoin="round"/>
</svg>
