<svg width="18" height="20" viewBox="0 0 18 20" fill="none" xmlns="http://www.w3.org/2000/svg">
<path d="M11.4271 14.4563C11.156 14.9073 11 15.4354 11 16C11 17.6569 12.3431 19 14 19C15.6569 19 17 17.6569 17 16C17 14.3431 15.6569 13 14 13C12.9077 13 11.9518 13.5837 11.4271 14.4563ZM11.4271 14.4563L6.57287 11.5437M6.57287 11.5437C6.84405 11.0927 7 10.5646 7 10C7 9.43543 6.84405 8.90728 6.57287 8.45628M6.57287 11.5437C6.04822 12.4163 5.09228 13 4 13C2.34315 13 1 11.6569 1 10C1 8.34315 2.34315 7 4 7C5.09228 7 6.04822 7.58374 6.57287 8.45628M6.57287 8.45628L11.4271 5.54372M11.4271 5.54372C11.9518 6.41626 12.9077 7 14 7C15.6569 7 17 5.65685 17 4C17 2.34315 15.6569 1 14 1C12.3431 1 11 2.34315 11 4C11 4.56458 11.156 5.09272 11.4271 5.54372Z" stroke="#686B6E" stroke-width="1.5" stroke-linecap="round" stroke-linejoin="round"/>
</svg>
